<svg width="180" height="72" viewBox="0 0 180 72" fill="none" xmlns="http://www.w3.org/2000/svg">
<path d="M162.939 30.529C162.937 33.1044 160.873 35.1906 158.326 35.1926C155.781 35.1926 153.716 33.1044 153.714 30.529C153.716 27.9535 155.779 25.8674 158.326 25.8654C160.873 25.8694 162.939 27.9555 162.939 30.529Z" fill="#CFDB2C"/>
<path d="M180 30.529C179.998 33.1044 177.935 35.1906 175.388 35.1926C172.842 35.1926 170.777 33.1044 170.775 30.529C170.777 27.9535 172.84 25.8674 175.388 25.8654C177.937 25.8694 180 27.9555 180 30.529Z" fill="#CFDB2C"/>
<path d="M171.47 39.1474C171.468 41.7229 169.405 43.8091 166.858 43.8111C164.313 43.8111 162.248 41.7229 162.246 39.1474C162.248 36.572 164.311 34.4858 166.858 34.4838C169.407 34.4858 171.47 36.574 171.47 39.1474Z" fill="#CFDB2C"/>
<path d="M137.351 21.9045C137.349 24.48 135.286 26.5661 132.739 26.5681C130.194 26.5681 128.129 24.48 128.127 21.9045C128.129 19.3291 130.192 17.2429 132.739 17.2409C135.286 17.2449 137.351 19.3311 137.351 21.9045Z" fill="#CFDB2C"/>
<path d="M154.409 21.9045C154.407 24.48 152.344 26.5661 149.797 26.5681C147.251 26.5681 145.186 24.48 145.184 21.9045C145.186 19.3291 147.249 17.2429 149.797 17.2409C152.344 17.2449 154.409 19.3311 154.409 21.9045Z" fill="#CFDB2C"/>
<path d="M171.47 21.9045C171.468 24.48 169.405 26.5661 166.858 26.5681C164.313 26.5681 162.248 24.48 162.246 21.9045C162.248 19.3291 164.311 17.2429 166.858 17.2409C169.407 17.2449 171.47 19.3311 171.47 21.9045Z" fill="#CFDB2C"/>
<path d="M145.881 13.2659C145.879 15.8414 143.816 17.9276 141.269 17.9296C138.724 17.9296 136.658 15.8414 136.656 13.2659C136.658 10.6905 138.722 8.60434 141.269 8.60233C143.816 8.60434 145.881 10.6925 145.881 13.2659Z" fill="#CFDB2C"/>
<path d="M162.939 13.2659C162.937 15.8414 160.873 17.9276 158.326 17.9296C155.781 17.9296 153.716 15.8414 153.714 13.2659C153.716 10.6905 155.779 8.60434 158.326 8.60233C160.873 8.60434 162.939 10.6925 162.939 13.2659Z" fill="#CFDB2C"/>
<path d="M175.74 8.95671C175.738 11.5322 173.675 13.6183 171.128 13.6203C168.583 13.6203 166.517 11.5322 166.515 8.95671C166.517 6.38125 168.581 4.2951 171.128 4.29309C173.675 4.29712 175.74 6.38528 175.74 8.95671Z" fill="#CFDB2C"/>
<path d="M175.74 52.0872C175.738 54.6626 173.675 56.7488 171.128 56.7508C168.583 56.7508 166.517 54.6626 166.515 52.0872C166.517 49.5117 168.581 47.4256 171.128 47.4236C173.675 47.4256 175.74 49.5137 175.74 52.0872Z" fill="#CFDB2C"/>
<path d="M133.078 8.95671C133.076 11.5322 131.012 13.6183 128.465 13.6203C125.92 13.6203 123.855 11.5322 123.853 8.95671C123.855 6.38125 125.918 4.2951 128.465 4.29309C131.012 4.29712 133.078 6.38528 133.078 8.95671Z" fill="#CFDB2C"/>
<path d="M154.409 4.66362C154.407 7.23908 152.344 9.32523 149.797 9.32724C147.251 9.32724 145.186 7.23908 145.184 4.66362C145.186 2.08816 147.249 0.00201365 149.797 0C152.344 0.00201365 154.409 2.09017 154.409 4.66362Z" fill="#CFDB2C"/>
<path d="M162.939 47.7739C162.937 50.3494 160.873 52.4355 158.326 52.4375C155.781 52.4375 153.716 50.3494 153.714 47.7739C153.716 45.1984 155.779 43.1123 158.326 43.1103C160.873 43.1143 162.939 45.2005 162.939 47.7739Z" fill="#CFDB2C"/>
<path d="M14.9285 64.2295C14.9245 68.3977 11.5867 71.7726 7.46423 71.7767C3.34576 71.7767 0.00398305 68.3977 0 64.2295C0.00398305 60.0612 3.34178 56.6863 7.46423 56.6823C11.5867 56.6863 14.9285 60.0653 14.9285 64.2295Z" fill="#CFDB2C"/>
<path d="M48.8262 40.6375V71.098H39.7887V68.2346C37.7991 70.5503 34.8477 71.9518 30.8109 71.9518C22.9165 71.9518 16.4102 64.9463 16.4102 55.8688C16.4102 46.7912 22.9185 39.7857 30.8109 39.7857C34.8477 39.7857 37.7991 41.1872 39.7887 43.5029V40.6395H48.8262V40.6375ZM39.7887 55.8668C39.7887 51.2978 36.7755 48.4344 32.6192 48.4344C28.4629 48.4344 25.4497 51.2978 25.4497 55.8668C25.4497 60.4357 28.4629 63.2992 32.6192 63.2992C36.7755 63.2992 39.7887 60.4357 39.7887 55.8668Z" fill="#ffffff"/>
<path d="M81.4494 40.6375V71.0981H72.4118V68.2347C70.7847 70.4879 67.7716 71.9519 63.7965 71.9519C57.7104 71.9519 52.5284 67.5641 52.5284 59.3404V40.6375H61.566V58.0013C61.566 61.7789 63.916 63.5449 66.8077 63.5449C70.1216 63.5449 72.4118 61.5956 72.4118 57.2703V40.6375H81.4494Z" fill="#ffffff"/>
<path d="M121.009 50.7179C121.009 62.3024 112.503 71.1967 101.335 71.1967H85.1317V30.239H101.335C112.503 30.239 121.009 39.1333 121.009 50.7179ZM112.097 51.2515C112.097 44.2299 107.698 39.7838 101.333 39.7838H94.3883V62.1856H101.333C107.7 62.1856 112.097 58.2731 112.097 51.2515Z" fill="#ffffff"/>
<path d="M145.443 64.7591H130.399L128.374 71.1947H118.247L132.018 30.239H143.824L157.595 71.1947H147.468L145.443 64.7591ZM142.667 55.9836L137.921 40.9477L133.175 55.9836H142.667Z" fill="#ffffff"/>
</svg>
