<svg xmlns="http://www.w3.org/2000/svg" xmlns:xlink="http://www.w3.org/1999/xlink" width="500" zoomAndPan="magnify" viewBox="0 0 375 374.999991" height="500" preserveAspectRatio="xMidYMid meet" version="1.0"><defs><g/></defs><rect x="-37.5" width="450" fill="none" y="-37.499999" height="449.999989" fill-opacity="1"/><path fill="#ffffff" d="M 186.710938 53.800781 C 166.957031 54.914062 149.175781 59.941406 132.089844 69.257812 C 128.910156 70.996094 126.257812 72.585938 126.003906 72.933594 C 125.746094 73.242188 125.675781 74.980469 125.914062 74.980469 C 126.003906 74.980469 126.550781 74.6875 127.15625 74.320312 C 138.265625 67.46875 150.234375 62.40625 162.40625 59.375 C 166.445312 58.367188 170.828125 57.472656 173.734375 57.070312 C 174.539062 56.960938 175.691406 56.796875 176.292969 56.707031 C 181.027344 55.972656 185.503906 55.699219 192.464844 55.71875 C 200.652344 55.71875 204.050781 55.972656 212.203125 57.164062 C 222.144531 58.625 234.277344 62.296875 244.179688 66.847656 C 247.269531 68.253906 253.007812 71.195312 254.304688 72.019531 C 254.816406 72.347656 255.308594 72.605469 255.417969 72.605469 C 255.546875 72.605469 255.949219 72.328125 256.316406 72 C 256.972656 71.433594 256.992188 71.398438 256.664062 71.125 C 256.480469 70.960938 255.21875 70.210938 253.867188 69.460938 C 244.710938 64.363281 234.496094 60.324219 223.898438 57.601562 C 218.632812 56.25 215.710938 55.699219 207.542969 54.511719 C 203.15625 53.871094 192.136719 53.488281 186.710938 53.800781 Z M 186.710938 53.800781 " fill-opacity="1" fill-rule="nonzero"/><path fill="#ffffff" d="M 192.007812 64.671875 C 179.34375 65.222656 167.558594 67.761719 155.84375 72.4375 C 152.207031 73.902344 144.605469 77.664062 141.335938 79.621094 C 136.4375 82.582031 132.492188 85.304688 127.957031 88.921875 C 125.199219 91.132812 123.847656 92.011719 120.742188 93.636719 C 116.519531 95.847656 113.140625 97.109375 109.394531 97.894531 C 107.347656 98.332031 102.777344 99.0625 101.371094 99.191406 C 100.675781 99.265625 99.304688 99.464844 98.355469 99.648438 C 91.210938 101.074219 82.96875 102.042969 76.007812 102.316406 C 74.234375 102.390625 72.773438 102.5 72.773438 102.574219 C 72.773438 102.8125 73.136719 103.03125 79.257812 106.320312 C 82.585938 108.089844 85.910156 109.902344 86.660156 110.304688 C 87.410156 110.722656 90.828125 112.550781 94.242188 114.378906 C 97.660156 116.207031 101.644531 118.363281 103.105469 119.148438 C 107.546875 121.542969 111.53125 123.589844 111.785156 123.589844 C 111.914062 123.589844 112.425781 122.910156 112.902344 122.070312 C 116.703125 115.4375 122.203125 108.328125 128.050781 102.464844 C 144.09375 86.402344 164.578125 76.863281 187.988281 74.578125 C 191.589844 74.230469 201.511719 74.285156 205.402344 74.667969 C 216.734375 75.820312 228.0625 79 237.96875 83.824219 C 239.121094 84.390625 240.199219 84.847656 240.363281 84.847656 C 240.617188 84.847656 247.269531 79.421875 247.835938 78.742188 C 248.183594 78.304688 248.128906 78.25 243.816406 76.09375 C 232.6875 70.539062 221.503906 67.085938 209.371094 65.476562 C 204.726562 64.875 196.414062 64.488281 192.007812 64.671875 Z M 192.007812 64.671875 " fill-opacity="1" fill-rule="nonzero"/><path fill="#ffffff" d="M 13.839844 100.324219 C 13.949219 100.433594 25.203125 106.539062 38.875 113.902344 C 52.542969 121.265625 72.386719 131.976562 82.988281 137.695312 C 93.585938 143.414062 102.300781 148.019531 102.375 147.945312 C 102.449219 147.875 102.851562 146.558594 103.253906 145.058594 C 104.550781 140.308594 106.925781 133.839844 108.9375 129.617188 C 109.246094 128.960938 109.503906 128.339844 109.503906 128.210938 C 109.503906 127.972656 100.199219 123.222656 99.742188 123.222656 C 99.597656 123.222656 99.324219 123.460938 99.140625 123.769531 C 98.976562 124.0625 98.71875 124.320312 98.59375 124.320312 C 98.464844 124.320312 97.019531 123.660156 95.359375 122.855469 C 93.714844 122.054688 92.304688 121.394531 92.234375 121.394531 C 92.125 121.394531 90.753906 120.753906 85.746094 118.34375 C 81.980469 116.515625 61.039062 106.046875 60.800781 105.863281 C 60.710938 105.789062 58.957031 104.875 56.910156 103.851562 L 53.183594 101.96875 L 50.917969 101.878906 C 49.671875 101.824219 48.648438 101.84375 48.648438 101.898438 C 48.648438 102.007812 51.117188 103.378906 60.34375 108.328125 C 64.421875 110.523438 69.152344 113.0625 70.851562 113.996094 C 72.570312 114.925781 77.832031 117.757812 82.546875 120.296875 C 87.28125 122.839844 91.832031 125.304688 92.691406 125.78125 C 93.550781 126.257812 94.753906 126.914062 95.394531 127.222656 C 96.035156 127.554688 96.601562 127.9375 96.65625 128.082031 C 96.800781 128.484375 96.234375 129.617188 95.886719 129.617188 C 95.722656 129.617188 94.261719 128.886719 92.636719 128.011719 C 91.007812 127.113281 87.703125 125.34375 85.289062 124.042969 C 82.878906 122.765625 80.210938 121.320312 79.351562 120.847656 C 78.492188 120.355469 75.695312 118.835938 73.136719 117.464844 C 65.058594 113.117188 56.582031 108.546875 51.664062 105.863281 C 49.050781 104.4375 46.148438 102.902344 45.214844 102.445312 L 43.515625 101.605469 L 40.554688 101.457031 C 38.929688 101.367188 34.835938 101.183594 31.472656 101.019531 C 28.109375 100.855469 23.835938 100.652344 21.96875 100.5625 C 13.949219 100.160156 13.65625 100.160156 13.839844 100.324219 Z M 13.839844 100.324219 " fill-opacity="1" fill-rule="nonzero"/><path fill="#ffffff" d="M 282.5 219.125 C 282.464844 219.195312 281.824219 220.769531 281.074219 222.632812 C 279.449219 226.726562 276.855469 231.933594 274.460938 235.898438 C 273.492188 237.527344 272.6875 238.933594 272.6875 239.0625 C 272.6875 239.28125 275.703125 240.761719 287.398438 246.296875 C 295.039062 249.914062 305.800781 255.398438 314.628906 260.1875 C 316.4375 261.171875 320.839844 263.492188 324.402344 265.355469 C 327.96875 267.203125 333.15625 269.960938 335.917969 271.480469 C 338.675781 272.996094 341.691406 274.566406 342.585938 274.988281 C 343.5 275.425781 345.125 276.195312 346.203125 276.707031 C 347.300781 277.21875 348.214844 277.636719 348.25 277.636719 C 348.289062 277.636719 350.1875 278.53125 352.492188 279.628906 C 359.378906 282.898438 359.761719 283.082031 360.585938 283.300781 C 361.410156 283.519531 361.609375 283.464844 361.445312 283.066406 C 361.390625 282.917969 359.015625 279.683594 356.164062 275.882812 C 353.3125 272.0625 349.96875 267.585938 348.746094 265.90625 C 347.5 264.222656 346.148438 262.523438 345.746094 262.121094 C 345.273438 261.664062 343.335938 260.515625 340.503906 258.980469 C 338.035156 257.644531 335.605469 256.328125 335.09375 256.054688 C 334.125 255.542969 329.683594 253.132812 318.464844 247.066406 C 314.753906 245.054688 310.84375 242.953125 309.785156 242.40625 C 308.722656 241.855469 307.171875 241.015625 306.3125 240.542969 C 305.453125 240.066406 302.585938 238.496094 299.917969 237.070312 C 290.632812 232.0625 291.238281 232.425781 291.179688 231.914062 C 291.144531 231.679688 291.253906 231.367188 291.402344 231.238281 C 291.710938 230.984375 292.769531 231.515625 303.84375 237.527344 C 306.660156 239.042969 309.785156 240.742188 310.789062 241.273438 C 311.792969 241.800781 313.859375 242.917969 315.359375 243.738281 C 316.875 244.5625 319.25 245.859375 320.65625 246.609375 C 337.285156 255.597656 342.367188 258.195312 342.457031 257.792969 C 342.566406 257.335938 341.308594 256.039062 339.753906 255.015625 C 338.894531 254.464844 337.796875 253.734375 337.285156 253.40625 C 336.097656 252.636719 330.542969 249.476562 327.96875 248.105469 C 326.871094 247.523438 325.664062 246.828125 325.316406 246.554688 C 324.96875 246.277344 323.527344 245.421875 322.121094 244.652344 C 320.710938 243.867188 319.230469 243.007812 318.828125 242.734375 C 318.007812 242.167969 312.835938 239.1875 310.605469 237.984375 C 309.800781 237.542969 308.578125 236.851562 307.867188 236.429688 C 307.171875 236.007812 303.71875 234.128906 300.226562 232.246094 C 296.738281 230.382812 293.703125 228.734375 293.519531 228.609375 C 293.046875 228.316406 293.0625 227.914062 293.613281 226.835938 C 294.433594 225.210938 294.5625 225.355469 289.683594 222.6875 C 284.035156 219.597656 282.628906 218.90625 282.5 219.125 Z M 282.5 219.125 " fill-opacity="1" fill-rule="nonzero"/><path fill="#ffffff" d="M 267.554688 245.878906 C 263.84375 250.480469 258.617188 255.871094 254.414062 259.382812 C 240.050781 271.40625 222.875 278.769531 203.976562 281.035156 C 200.617188 281.4375 190.582031 281.585938 186.820312 281.308594 C 176.839844 280.542969 167.648438 278.40625 158.347656 274.695312 C 156.628906 274 155.058594 273.433594 154.875 273.433594 C 154.328125 273.433594 146.78125 279.996094 146.78125 280.46875 C 146.78125 280.851562 152.648438 283.503906 157.179688 285.148438 C 167.136719 288.800781 176.769531 290.832031 187.53125 291.542969 C 191.535156 291.816406 200.105469 291.652344 203.976562 291.25 C 228.410156 288.710938 250.285156 278.660156 268.246094 261.71875 C 272.617188 257.589844 279.449219 249.988281 279.449219 249.222656 C 279.449219 249.09375 278.773438 248.65625 277.953125 248.253906 C 277.109375 247.851562 274.808594 246.734375 272.835938 245.765625 C 270.84375 244.800781 269.179688 244.011719 269.144531 244.011719 C 269.089844 244.011719 268.375 244.855469 267.554688 245.878906 Z M 267.554688 245.878906 " fill-opacity="1" fill-rule="nonzero"/><path fill="#ffffff" d="M 278.9375 268.738281 C 275.101562 272.449219 273.566406 273.800781 269.765625 276.832031 C 261.265625 283.59375 251.472656 289.40625 241.09375 293.847656 C 239.339844 294.59375 238.644531 294.871094 234.769531 296.292969 C 233.253906 296.863281 230.054688 297.902344 227.367188 298.707031 C 223.128906 299.984375 215.671875 301.632812 211.472656 302.199219 C 210.320312 302.363281 209.242188 302.527344 209.09375 302.582031 C 208.109375 302.875 199.996094 303.441406 195.480469 303.53125 C 180.988281 303.824219 167.503906 301.796875 153.90625 297.300781 C 148.664062 295.5625 142.761719 293.1875 138.921875 291.25 C 138.230469 290.902344 137.496094 290.613281 137.332031 290.613281 C 136.929688 290.613281 135.632812 291.636719 135.632812 291.964844 C 135.632812 292.21875 135.796875 292.292969 140.203125 294.304688 C 147.511719 297.628906 155.808594 300.515625 162.917969 302.199219 C 163.59375 302.363281 164.652344 302.617188 165.292969 302.765625 C 168.492188 303.511719 172.015625 304.117188 178.941406 305.046875 C 182.085938 305.46875 186.726562 305.667969 193.105469 305.652344 C 200.175781 305.632812 203.796875 305.394531 210.191406 304.5 C 220.808594 303 231.792969 299.984375 241.21875 295.984375 C 242.300781 295.527344 243.503906 295.015625 243.90625 294.851562 C 244.308594 294.6875 246.648438 293.554688 249.113281 292.3125 C 260.023438 286.867188 269.890625 280.011719 278.753906 271.734375 C 281.332031 269.324219 282.554688 268.0625 282.554688 267.804688 C 282.554688 267.476562 281.808594 266.488281 281.550781 266.488281 C 281.386719 266.488281 280.21875 267.496094 278.9375 268.738281 Z M 278.9375 268.738281 " fill-opacity="1" fill-rule="nonzero"/><g fill="#ffffff" fill-opacity="1"><g transform="translate(20.291288, 199.534777)"><g><path d="M 9.054688 0 C 9.820312 0 10.058594 -0.238281 10.058594 -1.007812 L 10.058594 -32.527344 C 10.058594 -33.292969 9.820312 -33.53125 9.054688 -33.53125 L 5.269531 -33.53125 C 4.503906 -33.53125 4.261719 -33.292969 4.261719 -32.527344 L 4.261719 -1.007812 C 4.261719 -0.238281 4.503906 0 5.269531 0 Z M 31.039062 0 C 31.808594 0 32.046875 -0.238281 32.046875 -1.007812 L 32.046875 -19.207031 L 10.921875 -19.207031 L 10.921875 -14.179688 L 26.25 -14.179688 L 26.25 -1.007812 C 26.25 -0.238281 26.488281 0 27.257812 0 Z M 27.257812 -33.53125 C 26.488281 -33.53125 26.25 -33.292969 26.25 -32.527344 L 26.25 -20.070312 L 32.046875 -20.070312 L 32.046875 -32.527344 C 32.046875 -33.292969 31.808594 -33.53125 31.039062 -33.53125 Z M 27.257812 -33.53125 "/></g></g></g><g fill="#ffffff" fill-opacity="1"><g transform="translate(59.038754, 199.534777)"><g><path d="M 5.558594 0 C 6.273438 0 6.46875 -0.238281 6.898438 -1.007812 L 17.53125 -24.429688 L 17.628906 -24.429688 L 22.800781 -13.363281 L 28.40625 -13.363281 L 18.492188 -33.292969 C 18.105469 -33.867188 18.011719 -34.25 17.628906 -34.25 L 17.484375 -34.25 C 17.148438 -34.25 17.003906 -33.867188 16.671875 -33.292969 L 0.480469 -1.007812 C 0.238281 -0.527344 0.527344 0 1.101562 0 Z M 34.011719 0 C 34.632812 0 34.921875 -0.527344 34.679688 -1.007812 L 28.835938 -12.503906 L 13.078125 -12.503906 L 10.824219 -7.570312 L 25.101562 -7.570312 L 28.261719 -1.007812 C 28.644531 -0.238281 28.886719 0 29.605469 0 Z M 34.011719 0 "/></g></g></g><g fill="#ffffff" fill-opacity="1"><g transform="translate(96.540967, 199.534777)"><g><path d="M 19.113281 -4.453125 C 12.40625 -4.597656 8.046875 -10.777344 8.046875 -16.765625 C 8.046875 -22.800781 12.453125 -28.886719 19.113281 -29.078125 L 19.113281 -34.15625 C 9.53125 -33.914062 2.203125 -26.011719 2.203125 -16.765625 C 2.203125 -7.519531 9.484375 0.382812 19.113281 0.621094 Z M 29.699219 -8.191406 C 29.414062 -8.480469 29.171875 -8.671875 28.933594 -8.671875 C 28.742188 -8.671875 28.503906 -8.527344 28.261719 -8.289062 C 26.203125 -6.082031 23.328125 -4.597656 19.925781 -4.453125 L 19.925781 0.621094 C 24.429688 0.480469 29.027344 -1.4375 31.949219 -4.3125 C 32.527344 -4.886719 32.429688 -5.171875 31.902344 -5.796875 Z M 31.949219 -29.21875 C 29.078125 -32.09375 24.382812 -34.011719 19.925781 -34.15625 L 19.925781 -29.078125 C 23.28125 -28.980469 26.203125 -27.449219 28.214844 -25.292969 C 28.503906 -25.003906 28.695312 -24.910156 28.886719 -24.910156 C 29.125 -24.910156 29.363281 -25.101562 29.652344 -25.386719 L 31.855469 -27.785156 C 32.382812 -28.359375 32.476562 -28.695312 31.949219 -29.21875 Z M 31.949219 -29.21875 "/></g></g></g><g fill="#ffffff" fill-opacity="1"><g transform="translate(133.08528, 199.534777)"><g><path d="M 4.261719 -1.007812 C 4.261719 -0.238281 4.503906 0 5.269531 0 L 9.054688 0 C 9.820312 0 10.058594 -0.191406 10.058594 -1.007812 L 10.058594 -32.527344 C 10.058594 -33.292969 9.820312 -33.53125 9.054688 -33.53125 L 5.269531 -33.53125 C 4.503906 -33.53125 4.261719 -33.292969 4.261719 -32.527344 Z M 24.957031 -33.53125 C 24.238281 -33.53125 24.046875 -33.292969 23.328125 -32.527344 L 10.875 -19.257812 L 10.875 -15.28125 L 12.40625 -13.605469 L 30.179688 -32.527344 C 30.847656 -33.246094 30.464844 -33.53125 29.746094 -33.53125 Z M 30.371094 0 C 30.992188 0 31.566406 -0.144531 30.800781 -1.007812 L 16.527344 -16.863281 L 12.980469 -13.03125 L 24 -1.007812 C 24.621094 -0.238281 24.863281 0 25.53125 0 Z M 30.371094 0 "/></g></g></g><g fill="#ffffff" fill-opacity="1"><g transform="translate(167.522244, 199.534777)"><g><path d="M 5.558594 0 C 6.273438 0 6.46875 -0.238281 6.898438 -1.007812 L 17.53125 -24.429688 L 17.628906 -24.429688 L 22.800781 -13.363281 L 28.40625 -13.363281 L 18.492188 -33.292969 C 18.105469 -33.867188 18.011719 -34.25 17.628906 -34.25 L 17.484375 -34.25 C 17.148438 -34.25 17.003906 -33.867188 16.671875 -33.292969 L 0.480469 -1.007812 C 0.238281 -0.527344 0.527344 0 1.101562 0 Z M 34.011719 0 C 34.632812 0 34.921875 -0.527344 34.679688 -1.007812 L 28.835938 -12.503906 L 13.078125 -12.503906 L 10.824219 -7.570312 L 25.101562 -7.570312 L 28.261719 -1.007812 C 28.644531 -0.238281 28.886719 0 29.605469 0 Z M 34.011719 0 "/></g></g></g><g fill="#ffffff" fill-opacity="1"><g transform="translate(205.024461, 199.534777)"><g><path d="M 11.976562 -28.359375 L 11.976562 -1.007812 C 11.976562 -0.238281 12.167969 0 12.980469 0 L 16.71875 0 C 17.53125 0 17.773438 -0.238281 17.773438 -1.007812 L 17.773438 -33.53125 L 1.484375 -33.53125 C 0.71875 -33.53125 0.480469 -33.292969 0.480469 -32.527344 L 0.480469 -29.363281 C 0.480469 -28.597656 0.671875 -28.359375 1.484375 -28.359375 Z M 28.214844 -28.359375 C 28.980469 -28.359375 29.21875 -28.550781 29.21875 -29.363281 L 29.21875 -32.527344 C 29.21875 -33.292969 29.027344 -33.53125 28.214844 -33.53125 L 18.585938 -33.53125 L 18.585938 -28.359375 Z M 28.214844 -28.359375 "/></g></g></g><g fill="#ffffff" fill-opacity="1"><g transform="translate(237.162467, 199.534777)"><g><path d="M 9.054688 0 C 9.820312 0 10.058594 -0.238281 10.058594 -1.007812 L 10.058594 -32.527344 C 10.058594 -33.292969 9.820312 -33.53125 9.054688 -33.53125 L 5.269531 -33.53125 C 4.503906 -33.53125 4.261719 -33.292969 4.261719 -32.527344 L 4.261719 -1.007812 C 4.261719 -0.238281 4.503906 0 5.269531 0 Z M 31.039062 0 C 31.808594 0 32.046875 -0.238281 32.046875 -1.007812 L 32.046875 -19.207031 L 10.921875 -19.207031 L 10.921875 -14.179688 L 26.25 -14.179688 L 26.25 -1.007812 C 26.25 -0.238281 26.488281 0 27.257812 0 Z M 27.257812 -33.53125 C 26.488281 -33.53125 26.25 -33.292969 26.25 -32.527344 L 26.25 -20.070312 L 32.046875 -20.070312 L 32.046875 -32.527344 C 32.046875 -33.292969 31.808594 -33.53125 31.039062 -33.53125 Z M 27.257812 -33.53125 "/></g></g></g><g fill="#ffffff" fill-opacity="1"><g transform="translate(275.909939, 199.534777)"><g><path d="M 18.96875 -4.453125 C 12.453125 -4.742188 8.046875 -10.730469 8.046875 -16.765625 C 8.046875 -22.800781 12.40625 -28.789062 18.96875 -29.078125 L 18.96875 -34.15625 C 9.628906 -33.914062 2.203125 -26.011719 2.203125 -16.765625 C 2.203125 -7.519531 9.53125 0.335938 18.96875 0.621094 Z M 19.832031 -29.078125 C 26.488281 -28.789062 30.753906 -22.800781 30.753906 -16.765625 C 30.753906 -10.730469 26.488281 -4.742188 19.832031 -4.453125 L 19.832031 0.621094 C 29.21875 0.335938 36.597656 -7.519531 36.597656 -16.765625 C 36.597656 -26.011719 29.171875 -33.914062 19.832031 -34.15625 Z M 19.832031 -29.078125 "/></g></g></g><g fill="#ffffff" fill-opacity="1"><g transform="translate(317.14792, 199.534777)"><g><path d="M 32.476562 0.621094 C 32.8125 0.621094 32.910156 0.527344 32.910156 0.191406 L 32.910156 -5.890625 L 5.796875 -33.769531 C 5.558594 -34.011719 5.316406 -34.15625 5.03125 -34.15625 L 4.648438 -34.15625 C 4.3125 -34.15625 4.214844 -34.058594 4.214844 -33.722656 L 4.214844 -27.925781 L 31.328125 0.238281 C 31.617188 0.480469 31.855469 0.621094 32.140625 0.621094 Z M 9.003906 0 C 9.773438 0 10.011719 -0.238281 10.011719 -1.007812 L 10.011719 -20.695312 L 4.214844 -26.730469 L 4.214844 -1.007812 C 4.214844 -0.238281 4.503906 0 5.269531 0 Z M 28.117188 -33.53125 C 27.351562 -33.53125 27.113281 -33.292969 27.113281 -32.527344 L 27.113281 -13.03125 L 32.910156 -7.089844 L 32.910156 -32.527344 C 32.910156 -33.292969 32.667969 -33.53125 31.902344 -33.53125 Z M 28.117188 -33.53125 "/></g></g></g><g fill="#ffffff" fill-opacity="1"><g transform="translate(356.748301, 199.534777)"><g/></g></g><g fill="#d80140" fill-opacity="1"><g transform="translate(119.059508, 142.703443)"><g><path d="M 12.515625 0.359375 C 10.378906 0.359375 8.445312 -0.101562 6.71875 -1.03125 C 4.988281 -1.957031 3.628906 -3.242188 2.640625 -4.890625 C 1.660156 -6.535156 1.171875 -8.398438 1.171875 -10.484375 C 1.171875 -12.554688 1.660156 -14.414062 2.640625 -16.0625 C 3.628906 -17.707031 4.988281 -18.992188 6.71875 -19.921875 C 8.445312 -20.847656 10.390625 -21.3125 12.546875 -21.3125 C 14.359375 -21.3125 16 -20.992188 17.46875 -20.359375 C 18.9375 -19.722656 20.171875 -18.804688 21.171875 -17.609375 L 18.046875 -14.734375 C 16.628906 -16.367188 14.875 -17.1875 12.78125 -17.1875 C 11.488281 -17.1875 10.332031 -16.898438 9.3125 -16.328125 C 8.289062 -15.765625 7.492188 -14.972656 6.921875 -13.953125 C 6.359375 -12.929688 6.078125 -11.773438 6.078125 -10.484375 C 6.078125 -9.179688 6.359375 -8.019531 6.921875 -7 C 7.492188 -5.988281 8.289062 -5.195312 9.3125 -4.625 C 10.332031 -4.050781 11.488281 -3.765625 12.78125 -3.765625 C 14.875 -3.765625 16.628906 -4.59375 18.046875 -6.25 L 21.171875 -3.390625 C 20.171875 -2.171875 18.929688 -1.238281 17.453125 -0.59375 C 15.972656 0.0390625 14.328125 0.359375 12.515625 0.359375 Z M 12.515625 0.359375 "/></g></g></g><g fill="#d80140" fill-opacity="1"><g transform="translate(143.992294, 142.703443)"><g><path d="M 9.8125 0.234375 C 8.125 0.234375 6.601562 -0.117188 5.25 -0.828125 C 3.90625 -1.535156 2.851562 -2.515625 2.09375 -3.765625 C 1.332031 -5.023438 0.953125 -6.453125 0.953125 -8.046875 C 0.953125 -9.648438 1.332031 -11.078125 2.09375 -12.328125 C 2.851562 -13.585938 3.90625 -14.570312 5.25 -15.28125 C 6.601562 -15.988281 8.125 -16.34375 9.8125 -16.34375 C 11.507812 -16.34375 13.023438 -15.988281 14.359375 -15.28125 C 15.703125 -14.570312 16.753906 -13.585938 17.515625 -12.328125 C 18.273438 -11.078125 18.65625 -9.648438 18.65625 -8.046875 C 18.65625 -6.453125 18.273438 -5.023438 17.515625 -3.765625 C 16.753906 -2.515625 15.703125 -1.535156 14.359375 -0.828125 C 13.023438 -0.117188 11.507812 0.234375 9.8125 0.234375 Z M 9.8125 -3.59375 C 11.007812 -3.59375 11.992188 -3.992188 12.765625 -4.796875 C 13.535156 -5.609375 13.921875 -6.691406 13.921875 -8.046875 C 13.921875 -9.410156 13.535156 -10.492188 12.765625 -11.296875 C 11.992188 -12.109375 11.007812 -12.515625 9.8125 -12.515625 C 8.613281 -12.515625 7.625 -12.109375 6.84375 -11.296875 C 6.070312 -10.492188 5.6875 -9.410156 5.6875 -8.046875 C 5.6875 -6.691406 6.070312 -5.609375 6.84375 -4.796875 C 7.625 -3.992188 8.613281 -3.59375 9.8125 -3.59375 Z M 9.8125 -3.59375 "/></g></g></g><g fill="#d80140" fill-opacity="1"><g transform="translate(166.590555, 142.703443)"><g><path d="M 22.78125 -16.34375 C 24.800781 -16.34375 26.40625 -15.75 27.59375 -14.5625 C 28.78125 -13.375 29.375 -11.59375 29.375 -9.21875 L 29.375 0 L 24.703125 0 L 24.703125 -8.5 C 24.703125 -9.78125 24.4375 -10.734375 23.90625 -11.359375 C 23.375 -11.984375 22.617188 -12.296875 21.640625 -12.296875 C 20.546875 -12.296875 19.675781 -11.941406 19.03125 -11.234375 C 18.394531 -10.523438 18.078125 -9.472656 18.078125 -8.078125 L 18.078125 0 L 13.40625 0 L 13.40625 -8.5 C 13.40625 -11.03125 12.390625 -12.296875 10.359375 -12.296875 C 9.273438 -12.296875 8.414062 -11.941406 7.78125 -11.234375 C 7.144531 -10.523438 6.828125 -9.472656 6.828125 -8.078125 L 6.828125 0 L 2.15625 0 L 2.15625 -16.109375 L 6.609375 -16.109375 L 6.609375 -14.25 C 7.210938 -14.925781 7.945312 -15.441406 8.8125 -15.796875 C 9.6875 -16.160156 10.640625 -16.34375 11.671875 -16.34375 C 12.804688 -16.34375 13.832031 -16.117188 14.75 -15.671875 C 15.675781 -15.222656 16.414062 -14.570312 16.96875 -13.71875 C 17.632812 -14.550781 18.46875 -15.195312 19.46875 -15.65625 C 20.476562 -16.113281 21.582031 -16.34375 22.78125 -16.34375 Z M 22.78125 -16.34375 "/></g></g></g><g fill="#d80140" fill-opacity="1"><g transform="translate(200.981119, 142.703443)"><g><path d="M 9.375 0.359375 C 7.71875 0.359375 6.113281 0.132812 4.5625 -0.3125 C 3.019531 -0.757812 1.78125 -1.34375 0.84375 -2.0625 L 2.484375 -5.71875 C 3.378906 -5.0625 4.445312 -4.53125 5.6875 -4.125 C 6.925781 -3.726562 8.164062 -3.53125 9.40625 -3.53125 C 10.78125 -3.53125 11.796875 -3.734375 12.453125 -4.140625 C 13.109375 -4.554688 13.4375 -5.101562 13.4375 -5.78125 C 13.4375 -6.28125 13.242188 -6.691406 12.859375 -7.015625 C 12.472656 -7.347656 11.972656 -7.613281 11.359375 -7.8125 C 10.753906 -8.007812 9.929688 -8.226562 8.890625 -8.46875 C 7.296875 -8.851562 5.988281 -9.234375 4.96875 -9.609375 C 3.945312 -9.984375 3.070312 -10.585938 2.34375 -11.421875 C 1.613281 -12.265625 1.25 -13.390625 1.25 -14.796875 C 1.25 -16.003906 1.578125 -17.101562 2.234375 -18.09375 C 2.898438 -19.082031 3.894531 -19.863281 5.21875 -20.4375 C 6.550781 -21.019531 8.175781 -21.3125 10.09375 -21.3125 C 11.425781 -21.3125 12.726562 -21.148438 14 -20.828125 C 15.28125 -20.515625 16.398438 -20.054688 17.359375 -19.453125 L 15.859375 -15.78125 C 13.929688 -16.875 12 -17.421875 10.0625 -17.421875 C 8.695312 -17.421875 7.691406 -17.203125 7.046875 -16.765625 C 6.398438 -16.328125 6.078125 -15.75 6.078125 -15.03125 C 6.078125 -14.3125 6.453125 -13.773438 7.203125 -13.421875 C 7.953125 -13.078125 9.09375 -12.734375 10.625 -12.390625 C 12.21875 -12.015625 13.523438 -11.632812 14.546875 -11.25 C 15.566406 -10.875 16.441406 -10.273438 17.171875 -9.453125 C 17.898438 -8.640625 18.265625 -7.535156 18.265625 -6.140625 C 18.265625 -4.941406 17.925781 -3.847656 17.25 -2.859375 C 16.582031 -1.867188 15.582031 -1.082031 14.25 -0.5 C 12.914062 0.0703125 11.289062 0.359375 9.375 0.359375 Z M 9.375 0.359375 "/></g></g></g><g fill="#d80140" fill-opacity="1"><g transform="translate(223.070572, 142.703443)"><g><path d="M 9.375 0.359375 C 7.71875 0.359375 6.113281 0.132812 4.5625 -0.3125 C 3.019531 -0.757812 1.78125 -1.34375 0.84375 -2.0625 L 2.484375 -5.71875 C 3.378906 -5.0625 4.445312 -4.53125 5.6875 -4.125 C 6.925781 -3.726562 8.164062 -3.53125 9.40625 -3.53125 C 10.78125 -3.53125 11.796875 -3.734375 12.453125 -4.140625 C 13.109375 -4.554688 13.4375 -5.101562 13.4375 -5.78125 C 13.4375 -6.28125 13.242188 -6.691406 12.859375 -7.015625 C 12.472656 -7.347656 11.972656 -7.613281 11.359375 -7.8125 C 10.753906 -8.007812 9.929688 -8.226562 8.890625 -8.46875 C 7.296875 -8.851562 5.988281 -9.234375 4.96875 -9.609375 C 3.945312 -9.984375 3.070312 -10.585938 2.34375 -11.421875 C 1.613281 -12.265625 1.25 -13.390625 1.25 -14.796875 C 1.25 -16.003906 1.578125 -17.101562 2.234375 -18.09375 C 2.898438 -19.082031 3.894531 -19.863281 5.21875 -20.4375 C 6.550781 -21.019531 8.175781 -21.3125 10.09375 -21.3125 C 11.425781 -21.3125 12.726562 -21.148438 14 -20.828125 C 15.28125 -20.515625 16.398438 -20.054688 17.359375 -19.453125 L 15.859375 -15.78125 C 13.929688 -16.875 12 -17.421875 10.0625 -17.421875 C 8.695312 -17.421875 7.691406 -17.203125 7.046875 -16.765625 C 6.398438 -16.328125 6.078125 -15.75 6.078125 -15.03125 C 6.078125 -14.3125 6.453125 -13.773438 7.203125 -13.421875 C 7.953125 -13.078125 9.09375 -12.734375 10.625 -12.390625 C 12.21875 -12.015625 13.523438 -11.632812 14.546875 -11.25 C 15.566406 -10.875 16.441406 -10.273438 17.171875 -9.453125 C 17.898438 -8.640625 18.265625 -7.535156 18.265625 -6.140625 C 18.265625 -4.941406 17.925781 -3.847656 17.25 -2.859375 C 16.582031 -1.867188 15.582031 -1.082031 14.25 -0.5 C 12.914062 0.0703125 11.289062 0.359375 9.375 0.359375 Z M 9.375 0.359375 "/></g></g></g><g fill="#d80140" fill-opacity="1"><g transform="translate(245.160025, 142.703443)"><g><path d="M 16.28125 -4.484375 L 6.5625 -4.484375 L 4.703125 0 L -0.265625 0 L 9.078125 -20.953125 L 13.859375 -20.953125 L 23.234375 0 L 18.140625 0 Z M 14.765625 -8.171875 L 11.4375 -16.203125 L 8.109375 -8.171875 Z M 14.765625 -8.171875 "/></g></g></g><g fill="#d80140" fill-opacity="1"><g transform="translate(152.434506, 243.709203)"><g><path d="M 16.828125 -3.953125 L 16.828125 0 L 0.984375 0 L 0.984375 -3.140625 L 9.078125 -10.78125 C 9.929688 -11.59375 10.503906 -12.289062 10.796875 -12.875 C 11.097656 -13.46875 11.25 -14.054688 11.25 -14.640625 C 11.25 -15.472656 10.960938 -16.113281 10.390625 -16.5625 C 9.828125 -17.019531 9 -17.25 7.90625 -17.25 C 6.988281 -17.25 6.160156 -17.070312 5.421875 -16.71875 C 4.679688 -16.375 4.0625 -15.847656 3.5625 -15.140625 L 0.03125 -17.421875 C 0.84375 -18.640625 1.96875 -19.59375 3.40625 -20.28125 C 4.84375 -20.96875 6.492188 -21.3125 8.359375 -21.3125 C 9.910156 -21.3125 11.269531 -21.054688 12.4375 -20.546875 C 13.601562 -20.035156 14.507812 -19.316406 15.15625 -18.390625 C 15.8125 -17.460938 16.140625 -16.375 16.140625 -15.125 C 16.140625 -13.976562 15.898438 -12.90625 15.421875 -11.90625 C 14.941406 -10.914062 14.015625 -9.78125 12.640625 -8.5 L 7.8125 -3.953125 Z M 16.828125 -3.953125 "/></g></g></g><g fill="#d80140" fill-opacity="1"><g transform="translate(173.087339, 243.709203)"><g><path d="M 10.15625 0.359375 C 8.414062 0.359375 6.863281 -0.0664062 5.5 -0.921875 C 4.144531 -1.785156 3.082031 -3.03125 2.3125 -4.65625 C 1.550781 -6.28125 1.171875 -8.222656 1.171875 -10.484375 C 1.171875 -12.734375 1.550781 -14.671875 2.3125 -16.296875 C 3.082031 -17.921875 4.144531 -19.160156 5.5 -20.015625 C 6.863281 -20.878906 8.414062 -21.3125 10.15625 -21.3125 C 11.882812 -21.3125 13.425781 -20.878906 14.78125 -20.015625 C 16.144531 -19.160156 17.207031 -17.921875 17.96875 -16.296875 C 18.738281 -14.671875 19.125 -12.734375 19.125 -10.484375 C 19.125 -8.222656 18.738281 -6.28125 17.96875 -4.65625 C 17.207031 -3.03125 16.144531 -1.785156 14.78125 -0.921875 C 13.425781 -0.0664062 11.882812 0.359375 10.15625 0.359375 Z M 10.15625 -3.75 C 11.425781 -3.75 12.425781 -4.296875 13.15625 -5.390625 C 13.882812 -6.484375 14.25 -8.179688 14.25 -10.484375 C 14.25 -12.773438 13.882812 -14.46875 13.15625 -15.5625 C 12.425781 -16.664062 11.425781 -17.21875 10.15625 -17.21875 C 8.894531 -17.21875 7.898438 -16.664062 7.171875 -15.5625 C 6.441406 -14.46875 6.078125 -12.773438 6.078125 -10.484375 C 6.078125 -8.179688 6.441406 -6.484375 7.171875 -5.390625 C 7.898438 -4.296875 8.894531 -3.75 10.15625 -3.75 Z M 10.15625 -3.75 "/></g></g></g><g fill="#d80140" fill-opacity="1"><g transform="translate(196.403922, 243.709203)"><g><path d="M 16.828125 -3.953125 L 16.828125 0 L 0.984375 0 L 0.984375 -3.140625 L 9.078125 -10.78125 C 9.929688 -11.59375 10.503906 -12.289062 10.796875 -12.875 C 11.097656 -13.46875 11.25 -14.054688 11.25 -14.640625 C 11.25 -15.472656 10.960938 -16.113281 10.390625 -16.5625 C 9.828125 -17.019531 9 -17.25 7.90625 -17.25 C 6.988281 -17.25 6.160156 -17.070312 5.421875 -16.71875 C 4.679688 -16.375 4.0625 -15.847656 3.5625 -15.140625 L 0.03125 -17.421875 C 0.84375 -18.640625 1.96875 -19.59375 3.40625 -20.28125 C 4.84375 -20.96875 6.492188 -21.3125 8.359375 -21.3125 C 9.910156 -21.3125 11.269531 -21.054688 12.4375 -20.546875 C 13.601562 -20.035156 14.507812 -19.316406 15.15625 -18.390625 C 15.8125 -17.460938 16.140625 -16.375 16.140625 -15.125 C 16.140625 -13.976562 15.898438 -12.90625 15.421875 -11.90625 C 14.941406 -10.914062 14.015625 -9.78125 12.640625 -8.5 L 7.8125 -3.953125 Z M 16.828125 -3.953125 "/></g></g></g><g fill="#d80140" fill-opacity="1"><g transform="translate(217.056759, 243.709203)"><g><path d="M 16.828125 -3.953125 L 16.828125 0 L 0.984375 0 L 0.984375 -3.140625 L 9.078125 -10.78125 C 9.929688 -11.59375 10.503906 -12.289062 10.796875 -12.875 C 11.097656 -13.46875 11.25 -14.054688 11.25 -14.640625 C 11.25 -15.472656 10.960938 -16.113281 10.390625 -16.5625 C 9.828125 -17.019531 9 -17.25 7.90625 -17.25 C 6.988281 -17.25 6.160156 -17.070312 5.421875 -16.71875 C 4.679688 -16.375 4.0625 -15.847656 3.5625 -15.140625 L 0.03125 -17.421875 C 0.84375 -18.640625 1.96875 -19.59375 3.40625 -20.28125 C 4.84375 -20.96875 6.492188 -21.3125 8.359375 -21.3125 C 9.910156 -21.3125 11.269531 -21.054688 12.4375 -20.546875 C 13.601562 -20.035156 14.507812 -19.316406 15.15625 -18.390625 C 15.8125 -17.460938 16.140625 -16.375 16.140625 -15.125 C 16.140625 -13.976562 15.898438 -12.90625 15.421875 -11.90625 C 14.941406 -10.914062 14.015625 -9.78125 12.640625 -8.5 L 7.8125 -3.953125 Z M 16.828125 -3.953125 "/></g></g></g></svg>