<svg xmlns="http://www.w3.org/2000/svg" xmlns:xlink="http://www.w3.org/1999/xlink" zoomAndPan="magnify" preserveAspectRatio="xMidYMid meet" version="1.0" viewBox="15.55 60.78 315.95 53.92"><defs><g></g></defs><g fill="#ffffff" fill-opacity="1"><g transform="translate(14.549127, 114.123345)"><g><path d="M 8.359375 0 C 9.066406 0 9.289062 -0.222656 9.289062 -0.929688 L 9.289062 -30.03125 C 9.289062 -30.742188 9.066406 -30.960938 8.359375 -30.960938 L 4.867188 -30.960938 C 4.15625 -30.960938 3.9375 -30.742188 3.9375 -30.03125 L 3.9375 -0.929688 C 3.9375 -0.222656 4.15625 0 4.867188 0 Z M 28.660156 0 C 29.371094 0 29.589844 -0.222656 29.589844 -0.929688 L 29.589844 -17.738281 L 10.085938 -17.738281 L 10.085938 -13.09375 L 24.238281 -13.09375 L 24.238281 -0.929688 C 24.238281 -0.222656 24.460938 0 25.167969 0 Z M 25.167969 -30.960938 C 24.460938 -30.960938 24.238281 -30.742188 24.238281 -30.03125 L 24.238281 -18.53125 L 29.589844 -18.53125 L 29.589844 -30.03125 C 29.589844 -30.742188 29.371094 -30.960938 28.660156 -30.960938 Z M 25.167969 -30.960938 "></path></g></g></g><g fill="#ffffff" fill-opacity="1"><g transform="translate(50.327442, 114.123345)"><g><path d="M 5.128906 0 C 5.792969 0 5.972656 -0.222656 6.371094 -0.929688 L 16.1875 -22.558594 L 16.277344 -22.558594 L 21.054688 -12.339844 L 26.230469 -12.339844 L 17.074219 -30.742188 C 16.71875 -31.269531 16.628906 -31.625 16.277344 -31.625 L 16.144531 -31.625 C 15.835938 -31.625 15.703125 -31.269531 15.390625 -30.742188 L 0.441406 -0.929688 C 0.222656 -0.488281 0.488281 0 1.015625 0 Z M 31.402344 0 C 31.980469 0 32.242188 -0.488281 32.023438 -0.929688 L 26.625 -11.542969 L 12.074219 -11.542969 L 9.996094 -6.988281 L 23.175781 -6.988281 L 26.097656 -0.929688 C 26.449219 -0.222656 26.671875 0 27.335938 0 Z M 31.402344 0 "></path></g></g></g><g fill="#ffffff" fill-opacity="1"><g transform="translate(84.955909, 114.123345)"><g><path d="M 17.648438 -4.113281 C 11.457031 -4.246094 7.429688 -9.953125 7.429688 -15.480469 C 7.429688 -21.054688 11.5 -26.671875 17.648438 -26.847656 L 17.648438 -31.535156 C 8.800781 -31.316406 2.035156 -24.015625 2.035156 -15.480469 C 2.035156 -6.945312 8.757812 0.355469 17.648438 0.574219 Z M 27.421875 -7.5625 C 27.15625 -7.828125 26.9375 -8.003906 26.714844 -8.003906 C 26.539062 -8.003906 26.316406 -7.875 26.097656 -7.652344 C 24.195312 -5.617188 21.539062 -4.246094 18.398438 -4.113281 L 18.398438 0.574219 C 22.558594 0.441406 26.804688 -1.328125 29.5 -3.980469 C 30.03125 -4.511719 29.945312 -4.777344 29.457031 -5.351562 Z M 29.5 -26.980469 C 26.847656 -29.632812 22.511719 -31.402344 18.398438 -31.535156 L 18.398438 -26.847656 C 21.496094 -26.757812 24.195312 -25.34375 26.050781 -23.355469 C 26.316406 -23.089844 26.496094 -23 26.671875 -23 C 26.890625 -23 27.113281 -23.175781 27.378906 -23.441406 L 29.414062 -25.652344 C 29.898438 -26.183594 29.988281 -26.496094 29.5 -26.980469 Z M 29.5 -26.980469 "></path></g></g></g><g fill="#ffffff" fill-opacity="1"><g transform="translate(118.699911, 114.123345)"><g><path d="M 3.9375 -0.929688 C 3.9375 -0.222656 4.15625 0 4.867188 0 L 8.359375 0 C 9.066406 0 9.289062 -0.175781 9.289062 -0.929688 L 9.289062 -30.03125 C 9.289062 -30.742188 9.066406 -30.960938 8.359375 -30.960938 L 4.867188 -30.960938 C 4.15625 -30.960938 3.9375 -30.742188 3.9375 -30.03125 Z M 23.042969 -30.960938 C 22.378906 -30.960938 22.203125 -30.742188 21.539062 -30.03125 L 10.039062 -17.78125 L 10.039062 -14.109375 L 11.457031 -12.5625 L 27.867188 -30.03125 C 28.484375 -30.695312 28.128906 -30.960938 27.46875 -30.960938 Z M 28.042969 0 C 28.617188 0 29.148438 -0.132812 28.441406 -0.929688 L 15.257812 -15.570312 L 11.988281 -12.03125 L 22.160156 -0.929688 C 22.734375 -0.222656 22.957031 0 23.574219 0 Z M 28.042969 0 "></path></g></g></g><g fill="#ffffff" fill-opacity="1"><g transform="translate(150.498027, 114.123345)"><g><path d="M 5.128906 0 C 5.792969 0 5.972656 -0.222656 6.371094 -0.929688 L 16.1875 -22.558594 L 16.277344 -22.558594 L 21.054688 -12.339844 L 26.230469 -12.339844 L 17.074219 -30.742188 C 16.71875 -31.269531 16.628906 -31.625 16.277344 -31.625 L 16.144531 -31.625 C 15.835938 -31.625 15.703125 -31.269531 15.390625 -30.742188 L 0.441406 -0.929688 C 0.222656 -0.488281 0.488281 0 1.015625 0 Z M 31.402344 0 C 31.980469 0 32.242188 -0.488281 32.023438 -0.929688 L 26.625 -11.542969 L 12.074219 -11.542969 L 9.996094 -6.988281 L 23.175781 -6.988281 L 26.097656 -0.929688 C 26.449219 -0.222656 26.671875 0 27.335938 0 Z M 31.402344 0 "></path></g></g></g><g fill="#ffffff" fill-opacity="1"><g transform="translate(185.126501, 114.123345)"><g><path d="M 11.058594 -26.183594 L 11.058594 -0.929688 C 11.058594 -0.222656 11.234375 0 11.988281 0 L 15.4375 0 C 16.1875 0 16.410156 -0.222656 16.410156 -0.929688 L 16.410156 -30.960938 L 1.371094 -30.960938 C 0.664062 -30.960938 0.441406 -30.742188 0.441406 -30.03125 L 0.441406 -27.113281 C 0.441406 -26.40625 0.621094 -26.183594 1.371094 -26.183594 Z M 26.050781 -26.183594 C 26.757812 -26.183594 26.980469 -26.363281 26.980469 -27.113281 L 26.980469 -30.03125 C 26.980469 -30.742188 26.804688 -30.960938 26.050781 -30.960938 L 17.160156 -30.960938 L 17.160156 -26.183594 Z M 26.050781 -26.183594 "></path></g></g></g><g fill="#ffffff" fill-opacity="1"><g transform="translate(214.801859, 114.123345)"><g><path d="M 8.359375 0 C 9.066406 0 9.289062 -0.222656 9.289062 -0.929688 L 9.289062 -30.03125 C 9.289062 -30.742188 9.066406 -30.960938 8.359375 -30.960938 L 4.867188 -30.960938 C 4.15625 -30.960938 3.9375 -30.742188 3.9375 -30.03125 L 3.9375 -0.929688 C 3.9375 -0.222656 4.15625 0 4.867188 0 Z M 28.660156 0 C 29.371094 0 29.589844 -0.222656 29.589844 -0.929688 L 29.589844 -17.738281 L 10.085938 -17.738281 L 10.085938 -13.09375 L 24.238281 -13.09375 L 24.238281 -0.929688 C 24.238281 -0.222656 24.460938 0 25.167969 0 Z M 25.167969 -30.960938 C 24.460938 -30.960938 24.238281 -30.742188 24.238281 -30.03125 L 24.238281 -18.53125 L 29.589844 -18.53125 L 29.589844 -30.03125 C 29.589844 -30.742188 29.371094 -30.960938 28.660156 -30.960938 Z M 25.167969 -30.960938 "></path></g></g></g><g fill="#ffffff" fill-opacity="1"><g transform="translate(250.58018, 114.123345)"><g><path d="M 17.515625 -4.113281 C 11.5 -4.378906 7.429688 -9.90625 7.429688 -15.480469 C 7.429688 -21.054688 11.457031 -26.582031 17.515625 -26.847656 L 17.515625 -31.535156 C 8.890625 -31.316406 2.035156 -24.015625 2.035156 -15.480469 C 2.035156 -6.945312 8.800781 0.308594 17.515625 0.574219 Z M 18.3125 -26.847656 C 24.460938 -26.582031 28.394531 -21.054688 28.394531 -15.480469 C 28.394531 -9.90625 24.460938 -4.378906 18.3125 -4.113281 L 18.3125 0.574219 C 26.980469 0.308594 33.792969 -6.945312 33.792969 -15.480469 C 33.792969 -24.015625 26.9375 -31.316406 18.3125 -31.535156 Z M 18.3125 -26.847656 "></path></g></g></g><g fill="#ffffff" fill-opacity="1"><g transform="translate(288.658142, 114.123345)"><g><path d="M 29.988281 0.574219 C 30.296875 0.574219 30.386719 0.488281 30.386719 0.175781 L 30.386719 -5.441406 L 5.351562 -31.183594 C 5.128906 -31.402344 4.910156 -31.535156 4.644531 -31.535156 L 4.289062 -31.535156 C 3.980469 -31.535156 3.890625 -31.449219 3.890625 -31.136719 L 3.890625 -25.785156 L 28.925781 0.222656 C 29.191406 0.441406 29.414062 0.574219 29.679688 0.574219 Z M 8.316406 0 C 9.023438 0 9.246094 -0.222656 9.246094 -0.929688 L 9.246094 -19.109375 L 3.890625 -24.679688 L 3.890625 -0.929688 C 3.890625 -0.222656 4.15625 0 4.867188 0 Z M 25.964844 -30.960938 C 25.253906 -30.960938 25.035156 -30.742188 25.035156 -30.03125 L 25.035156 -12.03125 L 30.386719 -6.546875 L 30.386719 -30.03125 C 30.386719 -30.742188 30.164062 -30.960938 29.457031 -30.960938 Z M 25.964844 -30.960938 "></path></g></g></g><g fill="#ffffff" fill-opacity="1"><g transform="translate(325.208808, 114.123345)"><g></g></g></g><g fill="#ffffff" fill-opacity="1"><g transform="translate(14.647547, 73.030069)"><g><path d="M 7.25 0.109375 C 6.050781 0.109375 4.96875 -0.15625 4 -0.6875 C 3.03125 -1.226562 2.269531 -1.96875 1.71875 -2.90625 C 1.175781 -3.851562 0.90625 -4.910156 0.90625 -6.078125 C 0.90625 -7.242188 1.175781 -8.296875 1.71875 -9.234375 C 2.269531 -10.179688 3.03125 -10.921875 4 -11.453125 C 4.976562 -11.984375 6.070312 -12.25 7.28125 -12.25 C 8.175781 -12.25 9.003906 -12.097656 9.765625 -11.796875 C 10.535156 -11.503906 11.1875 -11.066406 11.71875 -10.484375 L 10.90625 -9.671875 C 9.957031 -10.628906 8.757812 -11.109375 7.3125 -11.109375 C 6.351562 -11.109375 5.476562 -10.890625 4.6875 -10.453125 C 3.894531 -10.015625 3.273438 -9.410156 2.828125 -8.640625 C 2.390625 -7.878906 2.171875 -7.023438 2.171875 -6.078125 C 2.171875 -5.128906 2.390625 -4.269531 2.828125 -3.5 C 3.273438 -2.738281 3.894531 -2.140625 4.6875 -1.703125 C 5.476562 -1.265625 6.351562 -1.046875 7.3125 -1.046875 C 8.769531 -1.046875 9.96875 -1.53125 10.90625 -2.5 L 11.71875 -1.6875 C 11.1875 -1.101562 10.535156 -0.65625 9.765625 -0.34375 C 8.992188 -0.0390625 8.15625 0.109375 7.25 0.109375 Z M 7.25 0.109375 "></path></g></g></g><g fill="#ffffff" fill-opacity="1"><g transform="translate(27.298102, 73.030069)"><g><path d="M 5.453125 0.09375 C 4.566406 0.09375 3.769531 -0.101562 3.0625 -0.5 C 2.363281 -0.90625 1.8125 -1.460938 1.40625 -2.171875 C 1 -2.878906 0.796875 -3.675781 0.796875 -4.5625 C 0.796875 -5.457031 1 -6.253906 1.40625 -6.953125 C 1.8125 -7.660156 2.363281 -8.210938 3.0625 -8.609375 C 3.769531 -9.003906 4.566406 -9.203125 5.453125 -9.203125 C 6.328125 -9.203125 7.117188 -9.003906 7.828125 -8.609375 C 8.535156 -8.210938 9.085938 -7.660156 9.484375 -6.953125 C 9.878906 -6.253906 10.078125 -5.457031 10.078125 -4.5625 C 10.078125 -3.675781 9.878906 -2.878906 9.484375 -2.171875 C 9.085938 -1.460938 8.535156 -0.90625 7.828125 -0.5 C 7.117188 -0.101562 6.328125 0.09375 5.453125 0.09375 Z M 5.453125 -1 C 6.097656 -1 6.675781 -1.144531 7.1875 -1.4375 C 7.707031 -1.738281 8.109375 -2.160156 8.390625 -2.703125 C 8.679688 -3.253906 8.828125 -3.875 8.828125 -4.5625 C 8.828125 -5.257812 8.679688 -5.878906 8.390625 -6.421875 C 8.109375 -6.960938 7.707031 -7.378906 7.1875 -7.671875 C 6.675781 -7.972656 6.097656 -8.125 5.453125 -8.125 C 4.804688 -8.125 4.222656 -7.972656 3.703125 -7.671875 C 3.191406 -7.378906 2.785156 -6.960938 2.484375 -6.421875 C 2.191406 -5.878906 2.046875 -5.257812 2.046875 -4.5625 C 2.046875 -3.875 2.191406 -3.253906 2.484375 -2.703125 C 2.785156 -2.160156 3.191406 -1.738281 3.703125 -1.4375 C 4.222656 -1.144531 4.804688 -1 5.453125 -1 Z M 5.453125 -1 "></path></g></g></g><g fill="#ffffff" fill-opacity="1"><g transform="translate(38.352139, 73.030069)"><g><path d="M 13.109375 -9.203125 C 14.253906 -9.203125 15.148438 -8.867188 15.796875 -8.203125 C 16.453125 -7.546875 16.78125 -6.578125 16.78125 -5.296875 L 16.78125 0 L 15.546875 0 L 15.546875 -5.171875 C 15.546875 -6.117188 15.316406 -6.84375 14.859375 -7.34375 C 14.410156 -7.84375 13.769531 -8.09375 12.9375 -8.09375 C 11.988281 -8.09375 11.238281 -7.800781 10.6875 -7.21875 C 10.144531 -6.632812 9.875 -5.828125 9.875 -4.796875 L 9.875 0 L 8.640625 0 L 8.640625 -5.171875 C 8.640625 -6.117188 8.410156 -6.84375 7.953125 -7.34375 C 7.503906 -7.84375 6.851562 -8.09375 6 -8.09375 C 5.0625 -8.09375 4.316406 -7.800781 3.765625 -7.21875 C 3.222656 -6.632812 2.953125 -5.828125 2.953125 -4.796875 L 2.953125 0 L 1.71875 0 L 1.71875 -9.125 L 2.90625 -9.125 L 2.90625 -7.46875 C 3.226562 -8.019531 3.675781 -8.445312 4.25 -8.75 C 4.832031 -9.050781 5.5 -9.203125 6.25 -9.203125 C 7.007812 -9.203125 7.671875 -9.039062 8.234375 -8.71875 C 8.796875 -8.394531 9.21875 -7.914062 9.5 -7.28125 C 9.832031 -7.875 10.3125 -8.34375 10.9375 -8.6875 C 11.570312 -9.03125 12.296875 -9.203125 13.109375 -9.203125 Z M 13.109375 -9.203125 "></path></g></g></g><g fill="#ffffff" fill-opacity="1"><g transform="translate(56.937506, 73.030069)"><g><path d="M 5.328125 0.109375 C 4.421875 0.109375 3.554688 -0.0351562 2.734375 -0.328125 C 1.910156 -0.617188 1.269531 -1 0.8125 -1.46875 L 1.3125 -2.46875 C 1.757812 -2.03125 2.347656 -1.671875 3.078125 -1.390625 C 3.804688 -1.117188 4.554688 -0.984375 5.328125 -0.984375 C 6.421875 -0.984375 7.238281 -1.179688 7.78125 -1.578125 C 8.320312 -1.984375 8.59375 -2.503906 8.59375 -3.140625 C 8.59375 -3.628906 8.441406 -4.015625 8.140625 -4.296875 C 7.847656 -4.585938 7.488281 -4.8125 7.0625 -4.96875 C 6.632812 -5.125 6.039062 -5.296875 5.28125 -5.484375 C 4.363281 -5.710938 3.632812 -5.929688 3.09375 -6.140625 C 2.550781 -6.359375 2.082031 -6.6875 1.6875 -7.125 C 1.300781 -7.570312 1.109375 -8.171875 1.109375 -8.921875 C 1.109375 -9.535156 1.269531 -10.09375 1.59375 -10.59375 C 1.914062 -11.101562 2.410156 -11.503906 3.078125 -11.796875 C 3.753906 -12.097656 4.59375 -12.25 5.59375 -12.25 C 6.28125 -12.25 6.957031 -12.15625 7.625 -11.96875 C 8.289062 -11.78125 8.867188 -11.515625 9.359375 -11.171875 L 8.921875 -10.15625 C 8.410156 -10.488281 7.863281 -10.738281 7.28125 -10.90625 C 6.707031 -11.070312 6.144531 -11.15625 5.59375 -11.15625 C 4.53125 -11.15625 3.726562 -10.945312 3.1875 -10.53125 C 2.644531 -10.125 2.375 -9.597656 2.375 -8.953125 C 2.375 -8.472656 2.519531 -8.082031 2.8125 -7.78125 C 3.113281 -7.488281 3.484375 -7.265625 3.921875 -7.109375 C 4.367188 -6.953125 4.972656 -6.78125 5.734375 -6.59375 C 6.617188 -6.375 7.335938 -6.15625 7.890625 -5.9375 C 8.441406 -5.726562 8.90625 -5.40625 9.28125 -4.96875 C 9.664062 -4.539062 9.859375 -3.957031 9.859375 -3.21875 C 9.859375 -2.601562 9.691406 -2.039062 9.359375 -1.53125 C 9.035156 -1.03125 8.53125 -0.628906 7.84375 -0.328125 C 7.164062 -0.0351562 6.328125 0.109375 5.328125 0.109375 Z M 5.328125 0.109375 "></path></g></g></g><g fill="#ffffff" fill-opacity="1"><g transform="translate(67.783308, 73.030069)"><g><path d="M 5.328125 0.109375 C 4.421875 0.109375 3.554688 -0.0351562 2.734375 -0.328125 C 1.910156 -0.617188 1.269531 -1 0.8125 -1.46875 L 1.3125 -2.46875 C 1.757812 -2.03125 2.347656 -1.671875 3.078125 -1.390625 C 3.804688 -1.117188 4.554688 -0.984375 5.328125 -0.984375 C 6.421875 -0.984375 7.238281 -1.179688 7.78125 -1.578125 C 8.320312 -1.984375 8.59375 -2.503906 8.59375 -3.140625 C 8.59375 -3.628906 8.441406 -4.015625 8.140625 -4.296875 C 7.847656 -4.585938 7.488281 -4.8125 7.0625 -4.96875 C 6.632812 -5.125 6.039062 -5.296875 5.28125 -5.484375 C 4.363281 -5.710938 3.632812 -5.929688 3.09375 -6.140625 C 2.550781 -6.359375 2.082031 -6.6875 1.6875 -7.125 C 1.300781 -7.570312 1.109375 -8.171875 1.109375 -8.921875 C 1.109375 -9.535156 1.269531 -10.09375 1.59375 -10.59375 C 1.914062 -11.101562 2.410156 -11.503906 3.078125 -11.796875 C 3.753906 -12.097656 4.59375 -12.25 5.59375 -12.25 C 6.28125 -12.25 6.957031 -12.15625 7.625 -11.96875 C 8.289062 -11.78125 8.867188 -11.515625 9.359375 -11.171875 L 8.921875 -10.15625 C 8.410156 -10.488281 7.863281 -10.738281 7.28125 -10.90625 C 6.707031 -11.070312 6.144531 -11.15625 5.59375 -11.15625 C 4.53125 -11.15625 3.726562 -10.945312 3.1875 -10.53125 C 2.644531 -10.125 2.375 -9.597656 2.375 -8.953125 C 2.375 -8.472656 2.519531 -8.082031 2.8125 -7.78125 C 3.113281 -7.488281 3.484375 -7.265625 3.921875 -7.109375 C 4.367188 -6.953125 4.972656 -6.78125 5.734375 -6.59375 C 6.617188 -6.375 7.335938 -6.15625 7.890625 -5.9375 C 8.441406 -5.726562 8.90625 -5.40625 9.28125 -4.96875 C 9.664062 -4.539062 9.859375 -3.957031 9.859375 -3.21875 C 9.859375 -2.601562 9.691406 -2.039062 9.359375 -1.53125 C 9.035156 -1.03125 8.53125 -0.628906 7.84375 -0.328125 C 7.164062 -0.0351562 6.328125 0.109375 5.328125 0.109375 Z M 5.328125 0.109375 "></path></g></g></g><g fill="#ffffff" fill-opacity="1"><g transform="translate(78.629109, 73.030069)"><g><path d="M 9.59375 -3.25 L 2.828125 -3.25 L 1.375 0 L 0.03125 0 L 5.59375 -12.15625 L 6.859375 -12.15625 L 12.40625 0 L 11.0625 0 Z M 9.125 -4.28125 L 6.21875 -10.8125 L 3.296875 -4.28125 Z M 9.125 -4.28125 "></path></g></g></g><g fill="#ffffff" fill-opacity="1"><g transform="translate(327.140741, 88.122272)"><g><path d="M 2.015625 -4.671875 C 2.472656 -4.671875 2.847656 -4.554688 3.140625 -4.328125 C 3.441406 -4.109375 3.59375 -3.820312 3.59375 -3.46875 C 3.59375 -3.03125 3.300781 -2.515625 2.71875 -1.921875 L 1.78125 -0.9375 L 3.734375 -0.9375 L 3.734375 0 L 0.28125 0 L 0.28125 -0.765625 L 1.921875 -2.5 C 2.210938 -2.8125 2.359375 -3.078125 2.359375 -3.296875 C 2.359375 -3.429688 2.3125 -3.535156 2.21875 -3.609375 C 2.132812 -3.679688 2.007812 -3.71875 1.84375 -3.71875 C 1.457031 -3.71875 1.039062 -3.519531 0.59375 -3.125 L 0.140625 -3.96875 C 0.753906 -4.4375 1.378906 -4.671875 2.015625 -4.671875 Z M 2.015625 -4.671875 "></path></g></g></g><g fill="#ffffff" fill-opacity="1"><g transform="translate(327.140741, 96.914009)"><g><path d="M 2.328125 -4.65625 C 2.972656 -4.65625 3.472656 -4.453125 3.828125 -4.046875 C 4.179688 -3.640625 4.359375 -3.0625 4.359375 -2.3125 C 4.359375 -1.5625 4.179688 -0.984375 3.828125 -0.578125 C 3.472656 -0.171875 2.972656 0.03125 2.328125 0.03125 C 1.660156 0.03125 1.148438 -0.171875 0.796875 -0.578125 C 0.441406 -0.984375 0.265625 -1.5625 0.265625 -2.3125 C 0.265625 -3.0625 0.441406 -3.640625 0.796875 -4.046875 C 1.148438 -4.453125 1.660156 -4.65625 2.328125 -4.65625 Z M 2.328125 -3.796875 C 2.023438 -3.796875 1.804688 -3.679688 1.671875 -3.453125 C 1.546875 -3.222656 1.484375 -2.84375 1.484375 -2.3125 C 1.484375 -1.78125 1.546875 -1.398438 1.671875 -1.171875 C 1.804688 -0.941406 2.023438 -0.828125 2.328125 -0.828125 C 2.609375 -0.828125 2.816406 -0.941406 2.953125 -1.171875 C 3.085938 -1.410156 3.15625 -1.789062 3.15625 -2.3125 C 3.15625 -2.832031 3.085938 -3.207031 2.953125 -3.4375 C 2.816406 -3.675781 2.609375 -3.796875 2.328125 -3.796875 Z M 2.328125 -3.796875 "></path></g></g></g><g fill="#ffffff" fill-opacity="1"><g transform="translate(327.140741, 105.705746)"><g><path d="M 2.015625 -4.671875 C 2.472656 -4.671875 2.847656 -4.554688 3.140625 -4.328125 C 3.441406 -4.109375 3.59375 -3.820312 3.59375 -3.46875 C 3.59375 -3.03125 3.300781 -2.515625 2.71875 -1.921875 L 1.78125 -0.9375 L 3.734375 -0.9375 L 3.734375 0 L 0.28125 0 L 0.28125 -0.765625 L 1.921875 -2.5 C 2.210938 -2.8125 2.359375 -3.078125 2.359375 -3.296875 C 2.359375 -3.429688 2.3125 -3.535156 2.21875 -3.609375 C 2.132812 -3.679688 2.007812 -3.71875 1.84375 -3.71875 C 1.457031 -3.71875 1.039062 -3.519531 0.59375 -3.125 L 0.140625 -3.96875 C 0.753906 -4.4375 1.378906 -4.671875 2.015625 -4.671875 Z M 2.015625 -4.671875 "></path></g></g></g><g fill="#ffffff" fill-opacity="1"><g transform="translate(327.140741, 114.497483)"><g><path d="M 2.015625 -4.671875 C 2.472656 -4.671875 2.847656 -4.554688 3.140625 -4.328125 C 3.441406 -4.109375 3.59375 -3.820312 3.59375 -3.46875 C 3.59375 -3.03125 3.300781 -2.515625 2.71875 -1.921875 L 1.78125 -0.9375 L 3.734375 -0.9375 L 3.734375 0 L 0.28125 0 L 0.28125 -0.765625 L 1.921875 -2.5 C 2.210938 -2.8125 2.359375 -3.078125 2.359375 -3.296875 C 2.359375 -3.429688 2.3125 -3.535156 2.21875 -3.609375 C 2.132812 -3.679688 2.007812 -3.71875 1.84375 -3.71875 C 1.457031 -3.71875 1.039062 -3.519531 0.59375 -3.125 L 0.140625 -3.96875 C 0.753906 -4.4375 1.378906 -4.671875 2.015625 -4.671875 Z M 2.015625 -4.671875 "></path></g></g></g></svg>