<svg xmlns="http://www.w3.org/2000/svg" xmlns:xlink="http://www.w3.org/1999/xlink" width="500" zoomAndPan="magnify" viewBox="0 0 375 374.999991" height="500" preserveAspectRatio="xMidYMid meet" version="1.0"><path fill="#ffffff" d="M 187.226562 54.035156 C 167.429688 55.152344 149.617188 60.1875 132.496094 69.523438 C 129.308594 71.265625 126.652344 72.859375 126.398438 73.207031 C 126.140625 73.515625 126.066406 75.257812 126.304688 75.257812 C 126.398438 75.257812 126.945312 74.964844 127.550781 74.597656 C 138.683594 67.730469 150.675781 62.660156 162.871094 59.617188 C 166.917969 58.613281 171.3125 57.714844 174.226562 57.3125 C 175.03125 57.203125 176.183594 57.039062 176.789062 56.945312 C 181.53125 56.214844 186.015625 55.9375 192.992188 55.957031 C 201.195312 55.957031 204.601562 56.214844 212.769531 57.402344 C 220.679688 58.574219 230.878906 61.375 239.027344 64.636719 C 246.992188 67.804688 255.414062 72.234375 262.207031 76.777344 C 263.066406 77.34375 263.929688 77.820312 264.148438 77.820312 C 264.660156 77.820312 265.375 77.03125 265.246094 76.59375 C 265.117188 76.207031 260.90625 73.425781 257.007812 71.15625 C 246.917969 65.257812 236.097656 60.828125 224.488281 57.84375 C 219.214844 56.488281 216.285156 55.9375 208.097656 54.75 C 203.703125 54.109375 192.664062 53.722656 187.226562 54.035156 Z M 187.226562 54.035156 " fill-opacity="1" fill-rule="nonzero"/><path fill="#ffffff" d="M 192.535156 64.929688 C 179.847656 65.476562 168.035156 68.023438 156.296875 72.710938 C 152.65625 74.175781 145.039062 77.949219 141.761719 79.90625 C 136.851562 82.875 132.898438 85.601562 128.355469 89.226562 C 125.59375 91.441406 124.238281 92.320312 121.125 93.953125 C 116.894531 96.167969 113.507812 97.429688 109.753906 98.21875 C 107.703125 98.65625 103.125 99.390625 101.714844 99.519531 C 101.019531 99.589844 99.644531 99.792969 98.695312 99.976562 C 91.535156 101.402344 83.277344 102.375 76.300781 102.648438 C 74.523438 102.722656 73.058594 102.832031 73.058594 102.90625 C 73.058594 103.144531 73.425781 103.363281 79.558594 106.660156 C 82.890625 108.433594 86.222656 110.246094 86.976562 110.652344 C 87.726562 111.070312 91.148438 112.902344 94.574219 114.734375 C 97.996094 116.566406 101.988281 118.726562 103.453125 119.511719 C 108.488281 122.222656 116.4375 126.34375 116.65625 126.34375 C 116.730469 126.34375 117.683594 125.097656 118.761719 123.597656 C 127.222656 111.710938 137.019531 102.484375 148.316406 95.726562 C 175.910156 79.230469 209.675781 77.765625 238.183594 91.828125 C 244.976562 95.179688 250.78125 98.875 256.347656 103.4375 C 257.097656 104.039062 257.867188 104.554688 258.050781 104.554688 C 258.507812 104.554688 258.617188 104.5 263.398438 101.476562 C 271.160156 96.605469 271.363281 96.460938 271.363281 96.09375 C 271.363281 95.652344 268.394531 92.816406 264.585938 89.648438 C 249.023438 76.648438 230.199219 68.425781 209.929688 65.734375 C 205.28125 65.128906 196.949219 64.746094 192.535156 64.929688 Z M 192.535156 64.929688 " fill-opacity="1" fill-rule="nonzero"/><path fill="#ffffff" d="M 11.28125 99.753906 C 11.222656 99.847656 11.296875 100.03125 11.445312 100.160156 C 11.773438 100.433594 14.300781 102.027344 17.027344 103.710938 C 18.089844 104.351562 20.269531 105.6875 21.882812 106.660156 C 26.660156 109.589844 32.171875 112.757812 34.332031 113.835938 C 35.429688 114.402344 36.933594 115.191406 37.628906 115.59375 C 40.851562 117.445312 42.390625 118.339844 44.769531 119.75 C 48.78125 122.132812 56.359375 126.34375 62.714844 129.730469 C 63.628906 130.207031 64.890625 130.921875 65.550781 131.285156 C 66.210938 131.671875 68.351562 132.84375 70.3125 133.886719 C 72.273438 134.949219 77.507812 137.769531 81.941406 140.167969 C 86.371094 142.546875 90.363281 144.726562 90.820312 145.019531 C 91.277344 145.292969 93.621094 146.558594 96.039062 147.820312 C 98.457031 149.085938 101.238281 150.53125 102.226562 151.0625 C 103.214844 151.574219 104.132812 151.960938 104.261719 151.921875 C 104.386719 151.867188 104.847656 150.804688 105.265625 149.558594 C 107.152344 144.160156 109.734375 138.410156 112.609375 133.265625 C 113.304688 132 113.855469 130.847656 113.800781 130.699219 C 113.636719 130.296875 100.691406 123.597656 100.085938 123.597656 C 99.9375 123.597656 99.664062 123.835938 99.480469 124.144531 C 99.316406 124.4375 99.058594 124.695312 98.933594 124.695312 C 98.804688 124.695312 97.355469 124.035156 95.691406 123.230469 C 94.042969 122.425781 92.632812 121.765625 92.558594 121.765625 C 92.449219 121.765625 91.078125 121.125 86.058594 118.707031 C 82.269531 116.875 61.304688 106.382812 61.066406 106.199219 C 60.480469 105.742188 52.679688 101.972656 52.003906 101.824219 C 50.773438 101.550781 48.285156 101.570312 48.375 101.84375 C 48.46875 102.117188 48.597656 102.191406 59.507812 108.070312 C 64.195312 110.59375 69.433594 113.414062 71.136719 114.347656 C 72.859375 115.28125 78.132812 118.121094 82.855469 120.667969 C 87.597656 123.210938 92.15625 125.683594 93.015625 126.160156 C 93.878906 126.636719 95.085938 127.292969 95.726562 127.605469 C 96.367188 127.9375 96.9375 128.320312 96.992188 128.464844 C 97.136719 128.871094 96.570312 130.003906 96.222656 130.003906 C 96.058594 130.003906 94.59375 129.273438 92.960938 128.394531 C 91.332031 127.496094 88.019531 125.71875 85.601562 124.421875 C 83.183594 123.136719 80.511719 121.691406 79.652344 121.214844 C 78.789062 120.722656 75.988281 119.203125 73.425781 117.828125 C 65.367188 113.488281 56.855469 108.894531 51.910156 106.199219 C 44.660156 102.265625 43.652344 101.789062 42.078125 101.605469 C 41.34375 101.53125 39.585938 101.457031 38.175781 101.441406 C 34.992188 101.441406 28.949219 101.164062 23.894531 100.800781 C 19.738281 100.488281 12.652344 99.847656 11.867188 99.683594 C 11.609375 99.628906 11.335938 99.664062 11.28125 99.753906 Z M 11.28125 99.753906 " fill-opacity="1" fill-rule="nonzero"/><path fill="#ffffff" d="M 89.484375 149.394531 C 88.476562 150.585938 86.152344 160.820312 85.691406 166.078125 C 85.582031 167.429688 85.457031 168.785156 85.417969 169.097656 C 85.363281 169.390625 85.273438 172.355469 85.21875 175.691406 C 85.105469 181.019531 85.144531 182.226562 85.492188 185.945312 C 86.242188 194.109375 87.285156 201.269531 87.800781 201.78125 C 88.035156 202 88.898438 201.636719 94.574219 198.796875 C 98.164062 197.019531 101.128906 195.445312 101.183594 195.320312 C 101.238281 195.171875 101.109375 193.796875 100.910156 192.242188 C 100.304688 187.554688 100.105469 183.433594 100.214844 178.070312 C 100.378906 170.710938 100.945312 166.40625 102.941406 157.414062 C 103.105469 156.664062 103.105469 156.261719 102.976562 156.042969 C 102.796875 155.75 99.113281 153.679688 95.765625 151.976562 C 95.011719 151.59375 93.695312 150.878906 92.835938 150.382812 C 90.910156 149.265625 89.851562 148.957031 89.484375 149.394531 Z M 89.484375 149.394531 " fill-opacity="1" fill-rule="nonzero"/><path fill="#ffffff" d="M 296.171875 155.109375 C 292.859375 157.304688 289.984375 159.300781 289.800781 159.519531 C 289.488281 159.925781 289.488281 160.050781 289.855469 162.414062 C 290.570312 167.25 290.808594 170.726562 290.808594 176.238281 C 290.808594 184.972656 289.875 192.332031 287.640625 201.050781 C 287 203.558594 284.636719 210.828125 283.445312 213.976562 C 283.210938 214.597656 283.082031 215.242188 283.136719 215.40625 C 283.191406 215.550781 285.167969 216.648438 287.511719 217.820312 C 289.855469 218.992188 292.75 220.476562 293.957031 221.136719 C 295.953125 222.234375 296.15625 222.308594 296.648438 222.105469 C 297.234375 221.851562 297.070312 221.777344 310.273438 228.972656 C 319.28125 233.898438 327.449219 238.21875 327.722656 238.21875 C 328.144531 238.21875 327.921875 237.800781 326.625 236.113281 C 323.859375 232.582031 317.195312 223.222656 315.4375 220.402344 C 311.628906 214.363281 308.386719 206.671875 307.175781 200.921875 C 306.355469 196.964844 306.296875 195.90625 306.242188 182.648438 C 306.1875 171.203125 306.152344 169.71875 305.804688 166.808594 C 304.871094 159.007812 304.578125 157.234375 303.570312 153.460938 C 302.929688 151.023438 302.929688 151.0625 302.527344 151.082031 C 302.363281 151.082031 299.503906 152.894531 296.171875 155.109375 Z M 296.171875 155.109375 " fill-opacity="1" fill-rule="nonzero"/><path fill="#ffffff" d="M 281.03125 218.9375 C 280.867188 219.121094 280.351562 220.128906 279.859375 221.191406 C 277.878906 225.550781 275.554688 229.6875 272.496094 234.285156 L 270.0625 237.945312 L 270.484375 238.292969 C 271.03125 238.734375 276.78125 241.550781 288.117188 246.917969 C 295.789062 250.542969 306.554688 256.035156 315.398438 260.832031 C 317.210938 261.824219 321.625 264.148438 325.195312 266.015625 C 328.765625 267.863281 333.964844 270.628906 336.730469 272.148438 C 339.496094 273.667969 342.515625 275.242188 343.414062 275.664062 C 344.328125 276.105469 345.960938 276.875 347.039062 277.386719 C 348.136719 277.898438 349.054688 278.320312 349.089844 278.320312 C 349.128906 278.320312 351.03125 279.21875 353.339844 280.316406 C 360.242188 283.59375 360.625 283.777344 361.449219 283.996094 C 362.273438 284.214844 362.476562 284.160156 362.3125 283.757812 C 362.253906 283.613281 359.875 280.371094 357.019531 276.5625 C 354.164062 272.734375 350.8125 268.25 349.585938 266.566406 C 348.339844 264.878906 346.984375 263.175781 346.582031 262.773438 C 346.105469 262.316406 344.164062 261.164062 341.328125 259.625 C 338.855469 258.289062 336.417969 256.96875 335.90625 256.695312 C 334.9375 256.183594 330.488281 253.765625 319.246094 247.6875 C 315.527344 245.671875 311.609375 243.566406 310.546875 243.015625 C 309.484375 242.46875 307.929688 241.625 307.066406 241.148438 C 306.207031 240.671875 303.332031 239.097656 300.660156 237.671875 C 291.355469 232.652344 291.960938 233.019531 291.90625 232.507812 C 291.871094 232.269531 291.980469 231.957031 292.125 231.828125 C 292.4375 231.574219 293.5 232.105469 304.597656 238.128906 C 307.414062 239.648438 310.546875 241.351562 311.554688 241.882812 C 312.5625 242.414062 314.628906 243.53125 316.132812 244.355469 C 317.652344 245.179688 320.03125 246.476562 321.441406 247.230469 C 338.105469 256.238281 343.195312 258.835938 343.285156 258.433594 C 343.394531 257.976562 342.132812 256.675781 340.574219 255.652344 C 339.714844 255.101562 338.617188 254.371094 338.105469 254.039062 C 336.914062 253.269531 331.347656 250.105469 328.765625 248.730469 C 327.667969 248.144531 326.457031 247.449219 326.109375 247.175781 C 325.761719 246.898438 324.316406 246.039062 322.90625 245.269531 C 321.496094 244.480469 320.011719 243.621094 319.609375 243.347656 C 318.785156 242.78125 313.605469 239.792969 311.371094 238.585938 C 310.566406 238.148438 309.339844 237.449219 308.625 237.03125 C 307.929688 236.609375 304.46875 234.722656 300.96875 232.835938 C 297.472656 230.96875 294.433594 229.320312 294.25 229.191406 C 293.773438 228.898438 293.792969 228.496094 294.34375 227.417969 C 294.964844 226.207031 294.929688 225.898438 294.121094 225.367188 C 292.527344 224.324219 281.816406 218.628906 281.433594 218.628906 C 281.359375 218.628906 281.175781 218.773438 281.03125 218.9375 Z M 281.03125 218.9375 " fill-opacity="1" fill-rule="nonzero"/><path fill="#ffffff" d="M 262.480469 246.515625 C 258.542969 250.523438 255.871094 252.867188 251.75 255.964844 C 232.160156 270.703125 207.625 277.277344 183.378906 274.292969 C 170.125 272.644531 157.398438 268.269531 145.972656 261.402344 C 143.390625 259.84375 142.914062 259.625 142.566406 259.789062 C 142.347656 259.882812 141.175781 260.613281 139.964844 261.402344 C 138.777344 262.171875 135.773438 264.128906 133.300781 265.742188 C 130.828125 267.351562 128.703125 268.78125 128.59375 268.945312 C 128.285156 269.328125 128.523438 269.566406 131.304688 271.636719 C 146.335938 282.789062 164.117188 289.710938 183.195312 291.851562 C 189.09375 292.511719 198.742188 292.566406 204.527344 291.960938 C 229.011719 289.417969 250.925781 279.34375 268.925781 262.371094 C 273.304688 258.234375 280.152344 250.617188 280.152344 249.847656 C 280.152344 249.71875 279.636719 249.371094 279.015625 249.058594 C 278.375 248.75 275.316406 247.265625 272.203125 245.746094 C 269.109375 244.226562 266.417969 242.980469 266.253906 242.980469 C 266.089844 242.980469 264.402344 244.574219 262.480469 246.515625 Z M 262.480469 246.515625 " fill-opacity="1" fill-rule="nonzero"/><path fill="#ffffff" d="M 279.636719 269.402344 C 275.792969 273.121094 274.253906 274.476562 270.445312 277.515625 C 261.933594 284.289062 252.117188 290.113281 241.71875 294.5625 C 239.960938 295.3125 239.265625 295.585938 235.382812 297.015625 C 233.863281 297.582031 230.65625 298.625 227.964844 299.433594 C 223.71875 300.714844 216.246094 302.363281 212.035156 302.929688 C 210.882812 303.09375 209.800781 303.257812 209.65625 303.3125 C 208.667969 303.605469 200.535156 304.175781 196.015625 304.265625 C 183.214844 304.523438 171.3125 302.984375 159.300781 299.558594 C 152.269531 297.527344 145.109375 294.800781 138.996094 291.796875 C 138.042969 291.339844 137.144531 290.953125 136.980469 290.953125 C 136.652344 290.953125 135.644531 292.382812 135.789062 292.640625 C 136.082031 293.113281 144.378906 296.796875 148.957031 298.5 C 153.1875 300.074219 159.613281 302.03125 163.386719 302.929688 C 164.0625 303.09375 165.125 303.351562 165.765625 303.496094 C 168.96875 304.246094 172.503906 304.851562 179.441406 305.785156 C 182.59375 306.207031 187.242188 306.410156 193.632812 306.390625 C 200.71875 306.371094 204.34375 306.132812 210.753906 305.238281 C 221.394531 303.734375 232.398438 300.714844 241.84375 296.703125 C 242.925781 296.246094 244.132812 295.734375 244.539062 295.570312 C 244.941406 295.402344 247.285156 294.269531 249.753906 293.023438 C 260.6875 287.566406 270.574219 280.699219 279.457031 272.40625 C 282.039062 269.988281 283.265625 268.726562 283.265625 268.46875 C 283.265625 268.140625 282.511719 267.152344 282.257812 267.152344 C 282.09375 267.152344 280.921875 268.15625 279.636719 269.402344 Z M 279.636719 269.402344 " fill-opacity="1" fill-rule="nonzero"/></svg>