<?xml version="1.0" standalone="no"?>
<!DOCTYPE svg PUBLIC "-//W3C//DTD SVG 20010904//EN"
 "http://www.w3.org/TR/2001/REC-SVG-20010904/DTD/svg10.dtd">
<svg version="1.0" xmlns="http://www.w3.org/2000/svg"
 width="700.000000pt" height="700.000000pt" viewBox="0 0 700.000000 700.000000"
 preserveAspectRatio="xMidYMid meet">
<metadata>
Created by potrace 1.14, written by Peter Selinger 2001-2017
</metadata>
<g transform="translate(0.000000,700.000000) scale(0.100000,-0.100000)"
fill="#000000" stroke="none">
<path d="M3558 5995 c-2 -1 -50 -5 -108 -9 -308 -18 -606 -99 -893 -242 -146
-73 -200 -107 -203 -129 -3 -21 10 -19 56 10 52 33 237 125 315 158 101 41
289 102 355 114 14 2 45 9 70 14 25 6 63 12 85 15 22 3 47 7 55 10 48 16 379
23 531 11 155 -13 434 -73 526 -113 17 -8 35 -14 40 -14 16 0 134 -50 243
-103 101 -49 124 -61 238 -135 48 -30 82 -37 82 -15 0 13 -124 91 -236 150
-238 125 -532 222 -750 248 -26 4 -51 8 -55 11 -4 2 -62 6 -130 10 -68 3 -145
7 -171 8 -26 2 -49 2 -50 1z"/>
<path d="M3508 5785 c-2 -2 -35 -7 -73 -10 -39 -4 -72 -8 -75 -10 -3 -2 -26
-6 -50 -10 -25 -3 -63 -11 -85 -17 -22 -5 -49 -12 -61 -14 -65 -12 -256 -83
-369 -139 -142 -69 -225 -121 -383 -238 -149 -111 -288 -172 -437 -193 -39 -6
-159 -25 -177 -28 -7 -2 -35 -6 -63 -10 -27 -4 -61 -10 -75 -12 -34 -5 -142
-15 -220 -19 -36 -2 -69 -4 -75 -5 -10 0 134 -81 355 -197 69 -36 130 -69 135
-73 6 -4 80 -44 166 -89 l156 -81 73 97 c64 86 261 293 329 347 75 58 229 154
325 200 95 46 258 109 314 121 264 58 412 70 627 51 316 -27 677 -174 924
-375 l43 -35 44 24 c98 55 204 125 204 135 0 21 -139 142 -260 227 -218 153
-528 283 -770 323 -19 3 -48 8 -65 11 -16 3 -43 7 -60 10 -38 6 -392 14 -397
9z"/>
<path d="M227 5123 c45 -35 575 -345 748 -437 22 -11 42 -23 45 -26 3 -3 28
-17 55 -31 28 -14 79 -42 115 -61 462 -255 738 -400 751 -396 6 2 30 51 53
108 23 58 61 142 84 187 23 46 42 86 42 91 0 5 -55 37 -122 72 -91 47 -125 60
-137 53 -20 -13 -45 -2 -506 227 -209 104 -392 190 -407 192 -52 6 -27 -17 85
-77 146 -79 264 -143 412 -223 66 -35 154 -83 195 -105 70 -37 161 -87 168
-93 2 -1 0 -9 -5 -18 -7 -12 -61 14 -303 145 -162 88 -383 207 -492 265 l-196
105 -84 4 c-45 3 -135 7 -198 9 -63 3 -133 8 -155 10 -22 3 -69 8 -105 11 -63
5 -64 5 -43 -12z"/>
<path d="M1660 4186 c-11 -31 -28 -92 -35 -136 -30 -164 -33 -207 -30 -385 3
-176 6 -220 20 -315 15 -94 18 -111 25 -115 4 -2 62 23 128 56 l121 60 -7 67
c-9 88 -9 340 0 419 4 34 15 103 25 154 l17 92 -23 16 c-53 36 -197 110 -214
111 -10 0 -22 -11 -27 -24z"/>
<path d="M5522 4099 c-67 -45 -120 -84 -118 -88 19 -31 28 -401 12 -516 -16
-123 -47 -257 -90 -384 -26 -77 -40 -133 -35 -137 52 -32 242 -125 246 -120 5
5 59 -22 228 -114 28 -15 86 -47 130 -70 44 -23 113 -60 153 -82 39 -22 72
-37 72 -34 0 4 -36 56 -81 117 -171 234 -248 374 -289 522 -29 102 -30 121
-35 427 -2 151 -7 286 -9 299 -3 14 -8 47 -11 75 -7 60 -33 168 -44 179 -4 4
-62 -29 -129 -74z"/>
<path d="M5247 2913 c-3 -5 -28 -52 -56 -106 -28 -53 -72 -130 -99 -172 -36
-54 -47 -77 -38 -84 6 -5 88 -46 181 -91 209 -101 455 -223 555 -277 41 -22
129 -69 195 -103 66 -35 134 -71 150 -80 156 -90 599 -304 617 -298 6 2 -57
94 -139 203 l-150 200 -119 64 c-65 36 -141 77 -169 92 -27 15 -162 87 -300
161 -137 74 -289 156 -337 182 -80 43 -106 66 -77 66 9 0 210 -103 234 -120 6
-4 55 -31 110 -60 55 -30 144 -78 199 -107 246 -134 406 -214 400 -199 -5 14
-165 126 -180 126 -3 0 -86 47 -183 103 -161 95 -367 211 -499 282 -49 27 -52
31 -50 63 l3 34 -122 65 c-67 35 -124 60 -126 56z"/>
<path d="M4899 2397 c-184 -180 -371 -305 -614 -407 -81 -35 -268 -84 -395
-106 -60 -10 -421 -11 -487 -2 -28 5 -84 15 -125 24 -40 8 -83 18 -96 20 -87
17 -304 110 -468 200 l-51 28 -129 -84 c-71 -46 -131 -85 -133 -87 -10 -7 42
-51 137 -113 174 -116 404 -218 597 -266 183 -45 299 -59 500 -58 136 0 255 8
295 19 8 2 31 6 50 9 329 48 731 246 999 491 88 81 251 257 251 271 0 7 -241
124 -255 124 -7 0 -41 -28 -76 -63z"/>
<path d="M5210 1959 c-82 -75 -225 -189 -311 -247 -302 -203 -695 -346 -1044
-380 -92 -9 -390 -9 -485 0 -235 23 -509 99 -738 204 -41 19 -78 32 -83 28
-19 -11 -8 -32 24 -47 149 -71 377 -151 518 -182 190 -41 317 -53 544 -50 121
2 233 6 248 8 15 3 60 10 100 17 316 49 649 181 927 366 63 42 117 79 120 83
3 3 23 19 45 36 99 73 219 190 210 204 -10 18 -18 14 -75 -40z"/>
</g>
</svg>
